<?xml version="1.0" standalone="no"?><!DOCTYPE svg PUBLIC "-//W3C//DTD SVG 1.1//EN" "http://www.w3.org/Graphics/SVG/1.1/DTD/svg11.dtd"><svg t="1701098119580" class="icon" viewBox="0 0 1024 1024" version="1.1" xmlns="http://www.w3.org/2000/svg" p-id="10102" xmlns:xlink="http://www.w3.org/1999/xlink" width="200" height="200"><path d="M850.4 856.8c80 0 174.4-76 92-132s-72-81.6-62.4-124c4-16-9.6-65.6-78.4-60l-79.2 183.2 128 132.8zM229.6 562.4c-366.4 116.8-60.8 144-87.2 184s-89.6 67.2 8 102.4l191.2-142.4-112-144z" fill="#82EDD9" p-id="10103"></path><path d="M229.6 745.6c-32.8 20-57.6 36.8-73.6 48.8-24.8 18.4-36.8 60.8 36.8 60.8h184c-47.2-4-80-17.6-98.4-41.6s-35.2-46.4-48.8-68zM804 745.6c32.8 20 57.6 36.8 73.6 48.8 24.8 18.4 36.8 60.8-36.8 60.8h-184c42.4-1.6 72.8-12 91.2-32s37.6-45.6 56-77.6z" fill="#C6EFFF" p-id="10104"></path><path d="M802.4 428.8v305.6c0 23.2-21.6 46.4-44.8 74.4l-12 14.4c-19.2 23.2-33.6 32.8-120 32.8H399.2c-84.8-0.8-96-11.2-116-37.6l-4-5.6c-24-29.6-47.2-53.6-48.8-77.6V428.8c36 58.4 80 87.2 132 87.2h284c45.6 0 91.2 0 156-87.2z" fill="#F5F5F5" p-id="10105"></path><path d="M755.2 369.6c40.8 22.4 55.2 42.4 43.2 60l-5.6 8c-20.8 28.8-60.8 79.2-111.2 79.2H350.4c-55.2 0-98.4-60-116-86.4-12-17.6 1.6-36.8 40.8-58.4l2.4-1.6" fill="#D7D7D7" p-id="10106"></path><path d="M516 198.4c121.6 0 222.4 91.2 236.8 208.8 8.8 16.8-11.2 32.8-59.2 48-72.8 22.4-95.2 12-177.6 12s-132 0.8-177.6-12.8c-30.4-9.6-50.4-24.8-59.2-48 14.4-117.6 114.4-208 236.8-208z" fill="#CDE8FF" p-id="10107"></path><path d="M516 198.4c-24.8-7.2 112 54.4 112 152v118.4c32-6.4 60-12.8 84-20.8 36-12 46.4-24 36-78.4s-93.6-173.6-232-171.2z" fill="#A0D3FF" p-id="10108"></path><path d="M509.6 198.4c24.8-7.2-112 54.4-112 152v118.4c-32-5.6-60-12-84-20-36-12-46.4-24-36-78.4s94.4-174.4 232-172z" fill="#F7FBFF" p-id="10109"></path><path d="M334.4 516V856c-16-2.4-36-20-60-52s-38.4-51.2-44-57.6V422.4c34.4 51.2 68.8 83.2 104 93.6z" fill="#FFFFFF" p-id="10110"></path><path d="M702.4 516V856c16-2.4 36-20 60-52s38.4-51.2 44-57.6V422.4c-35.2 51.2-69.6 83.2-104 93.6z" fill="#D7D7D7" p-id="10111"></path><path d="M512 654.4c20 9.6 41.6 36 41.6 64v56l-104 20v16h144V718.4c0-20-25.6-73.6-57.6-76s-44 1.6-24 12z" fill="#D8D8D8" p-id="10112"></path><path d="M455.2 200.8c-1.6-4 0.8-11.2 6.4-13.6 6.4-2.4 26.4 6.4 35.2 9.6s11.2-0.8 12-4c1.6-3.2-8-13.6-12-23.2l-0.8-2.4c-3.2-8-5.6-14.4-1.6-20 4-6.4 12-4 15.2-5.6 3.2-0.8 4-5.6 6.4-5.6h0.8c4 0 4 4.8 7.2 6.4s11.2-0.8 15.2 5.6c4.8 5.6 1.6 13.6-3.2 22.4-4 8.8-13.6 20-12 23.2v0.8c1.6 3.2 4 5.6 12 3.2l2.4-0.8c9.6-4 27.2-11.2 32.8-8.8 6.4 2.4 8.8 9.6 6.4 13.6-1.6 4 6.4 5.6 6.4 8.8 0 4-8 5.6-6.4 9.6 1.6 4-0.8 11.2-6.4 13.6s-26.4-7.2-35.2-9.6c-8.8-3.2-11.2 0.8-12 4s8 68 12 77.6l1.6 3.2c3.2 8 5.6 15.2 1.6 20-4 6.4-12 4-15.2 5.6-3.2 0.8-4 5.6-6.4 6.4h-0.8c-4 0-4-4.8-7.2-6.4-4-1.6-11.2 0.8-15.2-5.6-4-6.4-1.6-14.4 3.2-24s13.6-74.4 12-77.6v-0.8c-1.6-3.2-3.2-5.6-12-2.4h-3.2c-9.6 4-27.2 11.2-32.8 8.8-6.4-2.4-8.8-9.6-6.4-13.6 1.6-4-6.4-5.6-6.4-9.6 0-3.2 8-4.8 6.4-8.8z" fill="#FFE281" p-id="10113"></path><path d="M196 785.6c-16 14.4-20 33.6 12 40 21.6 4 52.8 8.8 94.4 14.4v16H170.4c-33.6 0-48-33.6-24-52s65.6-32 49.6-18.4zM833.6 785.6c16 14.4 20 33.6-12 40-21.6 4-52.8 8.8-94.4 14.4v16h132c33.6 0 48-33.6 24-52s-65.6-32-49.6-18.4z" fill="#A0D3FF" p-id="10114"></path><path d="M801.6 584c24 16 40 1.6 40 57.6s17.6 96 72 116c28 10.4 4 78.4-17.6 88s46.4 6.4 62.4-36 14.4-70.4-44-112S880 608 880 600s-9.6-60-68-60c-5.6 18.4-5.6 24-10.4 44z" fill="#50CFB4" p-id="10115"></path><path d="M216 584c-32 24-112 57.6-94.4 81.6s80 73.6 30.4 94.4-8 6.4-12-14.4-20-24-52-46.4-56-41.6-32-59.2 192-80 160-56z" fill="#E0FFF9" p-id="10116"></path><path d="M516.8 136c4 0 4 4.8 7.2 6.4s11.2-0.8 15.2 5.6c4.8 5.6 1.6 13.6-3.2 22.4-4 8.8-13.6 20-12 23.2v0.8c1.6 3.2 4.8 5.6 12 3.2l2.4-0.8 0.8-0.8c10.4-4 26.4-10.4 32-8 6.4 2.4 8.8 9.6 6.4 13.6-1.6 4 6.4 5.6 6.4 8.8 0 4-8 5.6-6.4 9.6 1.6 4-0.8 11.2-6.4 13.6s-26.4-7.2-35.2-9.6c-8.8-3.2-11.2 0.8-12 4-1.6 3.2 8 67.2 12 77.6l1.6 3.2 0.8 1.6c3.2 7.2 4.8 13.6 0.8 19.2-4 6.4-12 4-15.2 5.6-3.2 0.8-4 5.6-6.4 6.4h-0.8-0.8l0.8-205.6z" fill="#F2CB49" p-id="10117"></path><path d="M516.8 128c2.4 0 5.6 0.8 7.2 2.4 0.8 0.8 1.6 1.6 2.4 3.2v1.6h5.6c4.8 0.8 8.8 3.2 12 8 3.2 4.8 4 10.4 3.2 16.8-0.8 3.2-1.6 7.2-4 12h0.8l-0.8 1.6c-0.8 1.6-1.6 4-3.2 5.6l-0.8 1.6-0.8 1.6-0.8 1.6-4 5.6 2.4-0.8 4.8-1.6 3.2-0.8 4-1.6 2.4-0.8 1.6-0.8c11.2-4 17.6-4.8 23.2-3.2 5.6 2.4 9.6 7.2 12 12.8V192c80 23.2 143.2 84.8 170.4 161.6 2.4 0 4 0.8 6.4 1.6 22.4 12 37.6 24 46.4 36 7.2 10.4 10.4 21.6 8 32 0.8 1.6 0.8 2.4 0.8 4v95.2c27.2 0.8 48 11.2 62.4 28 13.6 16 19.2 37.6 15.2 52l-2.4 9.6-0.8 4.8c-2.4 11.2-3.2 14.4-2.4 20v0.8c0.8 20 16 40 61.6 71.2 45.6 31.2 50.4 74.4 17.6 111.2-26.4 29.6-74.4 50.4-118.4 50.4H658.4l-2.4 1.6H192c-20.8 0-37.6-3.2-49.6-9.6l-2.4-0.8c-36-13.6-54.4-28-57.6-47.2-1.6-11.2 1.6-22.4 9.6-33.6 2.4-3.2 5.6-7.2 9.6-11.2l1.6-1.6 2.4-2.4 8-8 1.6-1.6 1.6-1.6c3.2-4 6.4-7.2 8.8-10.4l0.8-0.8c-2.4-2.4-6.4-4.8-12-7.2l-2.4-3.2-1.6-0.8c-2.4-0.8-4.8-2.4-7.2-4l-11.2-5.6-2.4-1.6c-20-9.6-32-16.8-41.6-26.4-14.4-13.6-20-30.4-12.8-48C48 616 104 585.6 214.4 549.6V428.8c0-1.6 0-3.2 0.8-4.8-2.4-10.4 0.8-20.8 7.2-31.2 8-12 22.4-23.2 43.2-35.2l1.6-0.8 2.4-1.6c1.6-0.8 3.2-1.6 4-1.6 27.2-76.8 90.4-138.4 171.2-161.6l3.2-0.8c1.6-4.8 5.6-8.8 10.4-11.2h1.6c4-1.6 9.6-0.8 20 2.4l1.6 0.8 1.6 0.8 1.6 0.8 2.4 0.8 8.8 3.2 1.6 0.8 1.6 0.8-4.8-7.2-0.8-1.6-0.8-1.6c-0.8-1.6-2.4-3.2-3.2-4.8v-0.8l-1.6-4c-5.6-12-6.4-20-0.8-28 3.2-4 7.2-6.4 12-8 0.8 0 1.6 0 2.4-0.8h3.2l0.8-0.8c0.8-0.8 0.8-1.6 1.6-2.4 1.6-1.6 2.4-2.4 4.8-3.2h1.6l3.2 0.8z m242.4 372c-24 20-48.8 32-76 32H351.2c-29.6 0-56.8-13.6-83.2-37.6-8-7.2-15.2-14.4-21.6-22.4V736c0.8 7.2 4.8 15.2 12 26.4l0.8 1.6 1.6 1.6c8 10.4 30.4 37.6 30.4 38.4l4 5.6c11.2 14.4 16.8 19.2 26.4 23.2h0.8c13.6 4.8 35.2 8 72 8h238.4c36 0 58.4-2.4 72-6.4h0.8c11.2-3.2 16.8-8 25.6-18.4l1.6-1.6 12-15.2c2.4-3.2 12.8-15.2 16-19.2l2.4-2.4 1.6-2.4c4-5.6 7.2-9.6 10.4-13.6 7.2-10.4 10.4-19.2 11.2-25.6V472c-8.8 10.4-17.6 20-27.2 28z m49.6 268l-0.8 0.8c-1.6 3.2-4 6.4-5.6 9.6-3.2 4.8-7.2 10.4-12.8 16.8l-3.2 4c-3.2 4-12 15.2-15.2 18.4l-0.8 0.8-12 15.2c-1.6 2.4-4 4.8-5.6 6.4h89.6c14.4 0 25.6-2.4 32-5.6 4-2.4 5.6-4 6.4-6.4 0.8-4.8-4-14.4-12.8-20.8l-1.6-1.6c-13.6-9.6-32.8-22.4-57.6-37.6z m-584 0l-5.6 3.2c-23.2 14.4-40.8 27.2-53.6 36-8.8 6.4-13.6 16-12.8 20.8 0 1.6 1.6 3.2 4 4.8h-0.8c1.6 0.8 2.4 1.6 4 2.4 6.4 3.2 16.8 4.8 31.2 4.8h89.6c-2.4-3.2-5.6-6.4-8.8-10.4l-4.8-6.4-3.2-3.2c-0.8-0.8-0.8-1.6-1.6-2.4l-12.8-16c-7.2-8.8-12-14.4-16-20.8-3.2-4-6.4-8.8-8.8-12.8z m292-145.6c52 0 94.4 41.6 95.2 93.6V792.8c0 17.6-13.6 32-31.2 32H453.6c-17.6 0-32-13.6-32-31.2v-54.4-22.4c0-51.2 42.4-94.4 95.2-94.4z m301.6-66.4V736l6.4 4c26.4 16.8 46.4 30.4 61.6 40.8l1.6 0.8c14.4 10.4 24 26.4 24.8 41.6 12.8-6.4 24.8-15.2 32.8-24 19.2-21.6 17.6-42.4-11.2-62.4l-0.8-0.8c-52.8-36-74.4-64-75.2-96.8v-3.2c0-9.6 0.8-16 7.2-40.8 0-1.6 0-4.8-0.8-8.8-1.6-5.6-4-10.4-8-15.2-8-8.8-20.8-14.4-38.4-15.2z m-712 71.2l-0.8 0.8c-24 12.8-36.8 24-40 32-3.2 7.2 7.2 16.8 36.8 32.8l4.8 2.4 12 6.4 4 1.6c2.4 0.8 4 1.6 5.6 3.2l1.6 0.8c9.6 5.6 16 9.6 21.6 14.4 10.4 9.6 13.6 22.4 6.4 34.4-4 6.4-9.6 12.8-16.8 20.8l-3.2 3.2-6.4 7.2-4 0.8-1.6 1.6-1.6 1.6c-2.4 3.2-4.8 5.6-6.4 8-3.2 4.8-4.8 8-4 9.6 0 0.8 0 0.8 0.8 2.4 0.8 1.6 2.4 3.2 5.6 4.8l0.8 0.8s0.8 0 0.8 0.8c3.2-12.8 12-25.6 23.2-34.4l0.8-0.8c16-12 38.4-27.2 68.8-45.6V584l-7.2 1.6c-44 15.2-77.6 28.8-101.6 41.6z m227.2-69.6c4 0 8 3.2 8 8v225.6c0 4.8-3.2 8-8 8-4 0-8-3.2-8-8V565.6c0-4.8 3.2-8 8-8z m366.4 0c4 0 8 3.2 8 8v225.6c0 4.8-3.2 8-8 8-4 0-8-3.2-8-8V565.6c0-4.8 3.2-8 8-8zM516.8 654.4c-34.4 0-63.2 28-63.2 62.4v20.8l-0.8 2.4v53.6h126.4v-53.6l-0.8-2.4v-2.4-17.6c1.6-34.4-26.4-63.2-61.6-63.2zM775.2 608v116c0 1.6-0.8 4-1.6 5.6l-36.8 42.4c-4.8 5.6-14.4 2.4-14.4-5.6V626.4c0-16.8 9.6-32.8 22.4-39.2 16-8 30.4 0.8 30.4 20.8z m-516.8 0c0-20 14.4-28.8 29.6-20.8 12.8 6.4 22.4 21.6 22.4 38.4V767.2c0 7.2-8.8 10.4-13.6 5.6l-36.8-42.4c-0.8-1.6-1.6-3.2-1.6-4.8V608z m493.6-6.4c-8 4-13.6 14.4-13.6 24.8v118.4l20.8-24V608c0-8-1.6-8.8-7.2-6.4z m-470.4 0l-0.8-0.8c-4-2.4-5.6-0.8-6.4 5.6V720l20.8 24V625.6c0-9.6-5.6-19.2-13.6-24z m159.2-52.8c4 0 8 3.2 8 8v44c0 4.8-3.2 8-8 8-4 0-8-3.2-8-8v-16h-14.4v16c0 4.8-3.2 8-8 8-4 0-8-3.2-8-8v-44c0-4.8 3.2-8 8-8 4 0 8 3.2 8 8v12h14.4v-12c0-4 4-8 8-8z m139.2 0c4.8 0 8 3.2 8 8 0 4-3.2 8-8 8h-16.8v4h14.4c4.8 0 8 3.2 8 8 0 4-3.2 8-8 8h-14.4v8h16.8c4 0 8 3.2 8 8 0 4-3.2 8-8 8h-20.8c-7.2 0-12-5.6-12-12.8V560.8c0-6.4 4.8-12.8 12-12.8h20.8z m22.4 0.8c4 0 8 3.2 8 8v35.2h8.8c1.6-2.4 4-4.8 7.2-4.8 4.8 0 8 3.2 8 8 0 6.4-4 12.8-11.2 12.8H604.8c-7.2 0-11.2-5.6-11.2-12.8V556.8c0.8-3.2 4-7.2 8.8-7.2z m-127.2-0.8c12 0 22.4 9.6 22.4 22.4V586.4c0 12.8-10.4 22.4-22.4 22.4-12 0-22.4-9.6-22.4-22.4V571.2c0-12 10.4-22.4 22.4-22.4z m61.6 0c4.8 0 8 3.2 8 8 0 4-3.2 8-8 8h-8V600c0 4.8-3.2 8-8 8-4 0-8-3.2-8-8v-34.4-0.8h-8c-4.8 0-8-3.2-8-8 0-4 3.2-8 8-8h32z m-61.6 16c-3.2 0-6.4 2.4-6.4 6.4v14.4c0 4 3.2 6.4 6.4 6.4s6.4-2.4 6.4-6.4v-14.4c0.8-3.2-2.4-6.4-6.4-6.4z m292-168.8c0 2.4 0.8 4 0.8 6.4v1.6c5.6 14.4 0 29.6-13.6 40.8l-0.8 0.8c-12 9.6-30.4 17.6-56.8 25.6-31.2 9.6-55.2 13.6-80.8 15.2h-8.8c-7.2 0-14.4 0-29.6-0.8l-21.6-0.8h-6.4c-10.4 0-20-0.8-29.6-0.8h-67.2c-22.4 0-35.2-0.8-49.6-1.6-27.2-1.6-49.6-4.8-70.4-11.2-34.4-10.4-58.4-28.8-69.6-56l0.8-2.4-1.6-4 0.8-4c0-2.4 0.8-4.8 0.8-7.2-7.2 4.8-12 9.6-14.4 13.6-3.2 4.8-3.2 6.4-0.8 9.6l2.4 3.2 2.4 3.2c12.8 17.6 24 31.2 37.6 44 20 18.4 40 28.8 60 28.8h331.2c18.4 0 37.6-8.8 56-24.8 14.4-12 27.2-27.2 40-45.6l1.6-1.6 5.6-8c2.4-3.2 2.4-4.8-1.6-9.6-3.2-4-8.8-8.8-16.8-14.4zM446.4 224.8c-55.2 18.4-99.2 56-126.4 104.8l18.4 10.4c7.2 4 10.4 13.6 6.4 21.6v0.8l-0.8 2.4c-4 7.2-13.6 10.4-21.6 6.4h-0.8l-15.2-8.8c-4.8 13.6-8.8 28-10.4 42.4v0.8c8 15.2 22.4 26.4 46.4 33.6h1.6l1.6 0.8 1.6 0.8c30.4 8.8 56.8 10.4 134.4 10.4h41.6c11.2 0 21.6 0 35.2 0.8l27.2 0.8H615.2c23.2-0.8 44.8-4.8 74.4-13.6l2.4-0.8 2.4-0.8c20-6.4 33.6-12.8 40.8-18.4 2.4-1.6 4-3.2 4-4.8l-1.6-2.4v-3.2c-1.6-16-5.6-32-11.2-46.4l-13.6 8c-8 4.8-17.6 1.6-21.6-5.6l-0.8-2.4c-4.8-8-1.6-17.6 5.6-21.6l16.8-9.6c-26.4-48.8-71.2-87.2-124.8-104.8-0.8 5.6-4.8 12-11.2 14.4h-1.6c-5.6 2.4-12 0.8-22.4-2.4H552l-1.6-0.8-2.4-0.8-1.6-0.8-8.8-4-1.6-0.8c-0.8 0-0.8-0.8-1.6-0.8h-1.6v12.8c0.8 4.8 1.6 9.6 1.6 14.4v1.6l0.8 6.4c2.4 16.8 5.6 31.2 7.2 35.2l1.6 3.2c5.6 12 6.4 20 0.8 28-3.2 4-7.2 6.4-12 8-0.8 0-1.6 0-3.2 0.8h-3.2l-0.8 0.8c-0.8 0.8-0.8 1.6-1.6 2.4-1.6 1.6-2.4 2.4-4.8 3.2h-4c-3.2 0-5.6-0.8-7.2-2.4-0.8-0.8-1.6-1.6-2.4-3.2l-0.8-0.8H498.4c-4.8-0.8-8.8-3.2-12-8-3.2-4.8-4-10.4-3.2-16.8 0.8-3.2 1.6-6.4 4-11.2l0.8-1.6 0.8-1.6c1.6-3.2 4-16 6.4-31.2l0.8-4 0.8-6.4 0.8-4.8c0.8-4.8 1.6-8.8 1.6-12.8V235.2v-4.8H496.8l0.8 1.6-11.2 4-2.4 0.8-1.6 0.8c-11.2 4-17.6 5.6-23.2 3.2-7.2-3.2-12-9.6-12.8-16z m7.2 136.8c8.8 0 16 7.2 16 15.2v3.2c0 8.8-7.2 16-15.2 16h-27.2c-8.8 0-16-7.2-16-15.2v-3.2c0-8.8 7.2-16 15.2-16h27.2z m152.8 0c8.8 0 16 7.2 16 15.2v3.2c0 8.8-7.2 16-15.2 16h-27.2c-8.8 0-16-7.2-16-15.2v-3.2c0-8.8 7.2-16 15.2-16h27.2z m0 16h-26.4v2.4h26.4v-2.4z m-152.8 0h-26.4v2.4h26.4v-2.4z m265.6-32.8l-16 9.6 0.8 2.4 16-8.8-0.8-3.2z m-407.2 1.6l17.6 10.4 0.8-2.4-17.6-10.4c0 0.8-0.8 1.6-0.8 2.4z m204.8-108V243.2c-0.8 4-0.8 8-1.6 13.6l-0.8 4-0.8 6.4-1.6 4.8c-2.4 17.6-5.6 30.4-7.2 35.2l-0.8 2.4c-4 8-4 12-3.2 13.6 0.8 0.8 0.8 0.8 2.4 1.6H508c1.6 0 3.2 0 4.8 0.8 1.6 0.8 3.2 1.6 4 2.4h0.8c0.8-0.8 2.4-1.6 3.2-2.4h1.6c1.6-0.8 2.4-0.8 4.8-0.8h4c0.8 0 1.6-0.8 2.4-1.6 0.8-1.6 0.8-4.8-1.6-10.4l-0.8-0.8-0.8-1.6-1.6-3.2c-2.4-4.8-4.8-18.4-8-36.8l-0.8-5.6v-4l-0.8-4.8c-0.8-4.8-1.6-9.6-1.6-13.6v-0.8l-0.8-3.2z m52-43.2c-1.6 0-2.4 0-3.2 0.8-2.4 0.8-4.8 1.6-8 2.4h-0.8l-1.6 0.8-1.6 0.8-3.2 0.8c-2.4 0.8-7.2 2.4-8.8 3.2l-3.2 0.8c-10.4 3.2-17.6 0.8-21.6-6.4v-1.6c-3.2 8-9.6 11.2-20.8 8h-1.6c-0.8 0-2.4-0.8-3.2-1.6l-2.4-0.8-6.4-2.4-3.2-1.6-1.6-0.8-1.6-0.8c-3.2-0.8-5.6-1.6-8-2.4-0.8 0-2.4-0.8-3.2-0.8H464c-0.8 0-0.8 0.8-0.8 0.8v0.8c0.8 3.2 0.8 6.4-0.8 8.8v1.6l-1.6 1.6s0.8 0.8 0.8 1.6v1.6c1.6 2.4 2.4 5.6 1.6 8.8V221.6c0 0.8 0.8 1.6 1.6 1.6s1.6 0 3.2-0.8c2.4-0.8 4.8-1.6 8-2.4h0.8l1.6-0.8 1.6-0.8c0.8 0 0.8 0 1.6-0.8l10.4-4 3.2-0.8c10.4-3.2 17.6-0.8 21.6 6.4v0.8l0.8 0.8c3.2-8 9.6-11.2 20.8-8H540.8s0.8 0 0.8 0.8l1.6 0.8 9.6 4 1.6 0.8 1.6 0.8 1.6 0.8c3.2 0.8 6.4 2.4 8.8 2.4 0.8 0 2.4 0.8 3.2 0.8 0.8 0 0.8-0.8 0.8-1.6v-1.6c-0.8-3.2-0.8-5.6 0.8-8.8v-1.6c0.8-0.8 0.8-1.6 1.6-1.6l-0.8-0.8v-1.6c-1.6-2.4-2.4-5.6-1.6-8.8v-0.8-0.8c0 0.8 0 0-1.6-0.8z m-52-48c-1.6 1.6-3.2 2.4-4.8 3.2-1.6 0.8-2.4 0.8-4.8 0.8h-4.8c-0.8 0-1.6 0.8-1.6 0.8-0.8 1.6-0.8 4.8 1.6 10.4v0.8l0.8 1.6 0.8 2.4c0.8 0.8 1.6 2.4 2.4 4l0.8 1.6 0.8 1.6 0.8 1.6 3.2 4.8 0.8 0.8 0.8 0.8 0.8 0.8v0.8c0.8 1.6 1.6 2.4 1.6 3.2v0.8c0-0.8 0.8-1.6 1.6-2.4l0.8-0.8V184l0.8-0.8 0.8-0.8v-0.8l4.8-7.2 0.8-0.8 0.8-0.8 2.4-4.8 0.8-1.6c4-8 4.8-12 3.2-13.6-0.8-0.8-0.8-0.8-1.6-0.8h-1.6-4c-1.6 0-3.2 0-4.8-0.8-1.6-2.4-2.4-3.2-4-4z" fill="#6A6253" p-id="10118"></path></svg>